solid Default
  facet normal 6.123234e-17 0.000000e+00 -1.000000e+00
    outer loop
      vertex 7.500271e-01 2.575000e+01 1.175005e+01
      vertex -7.499748e-01 2.575000e+01 1.175005e+01
      vertex -7.499748e-01 2.900000e+01 1.175005e+01
    endloop
  endfacet
  facet normal 6.123234e-17 0.000000e+00 -1.000000e+00
    outer loop
      vertex -7.499748e-01 1.900000e+01 1.175005e+01
      vertex -7.499748e-01 2.225000e+01 1.175005e+01
      vertex 3.750025e+00 1.900000e+01 1.175005e+01
    endloop
  endfacet
  facet normal 6.123234e-17 0.000000e+00 -1.000000e+00
    outer loop
      vertex 3.750025e+00 1.900000e+01 1.175005e+01
      vertex -7.499748e-01 2.225000e+01 1.175005e+01
      vertex 7.500271e-01 2.225000e+01 1.175005e+01
    endloop
  endfacet
  facet normal 6.123234e-17 0.000000e+00 -1.000000e+00
    outer loop
      vertex 5.104589e+00 2.547145e+01 1.175005e+01
      vertex 4.843922e+00 2.567433e+01 1.175005e+01
      vertex 6.688952e+00 2.804508e+01 1.175005e+01
    endloop
  endfacet
  facet normal 6.123234e-17 0.000000e+00 -1.000000e+00
    outer loop
      vertex 1.991079e+00 2.495189e+01 1.175005e+01
      vertex 1.858392e+00 2.464940e+01 1.175005e+01
      vertex -7.499748e-01 2.900000e+01 1.175005e+01
    endloop
  endfacet
  facet normal 6.123234e-17 0.000000e+00 -1.000000e+00
    outer loop
      vertex 1.750027e+00 2.400000e+01 1.175005e+01
      vertex 1.777303e+00 2.367081e+01 1.175005e+01
      vertex 7.500271e-01 2.225000e+01 1.175005e+01
    endloop
  endfacet
  facet normal 6.123234e-17 0.000000e+00 -1.000000e+00
    outer loop
      vertex 7.500271e-01 2.225000e+01 1.175005e+01
      vertex 1.777303e+00 2.367081e+01 1.175005e+01
      vertex 1.858392e+00 2.335060e+01 1.175005e+01
    endloop
  endfacet
  facet normal 6.123234e-17 0.000000e+00 -1.000000e+00
    outer loop
      vertex 7.500271e-01 2.225000e+01 1.175005e+01
      vertex 1.858392e+00 2.335060e+01 1.175005e+01
      vertex 1.991079e+00 2.304811e+01 1.175005e+01
    endloop
  endfacet
  facet normal 6.123234e-17 0.000000e+00 -1.000000e+00
    outer loop
      vertex 7.500271e-01 2.225000e+01 1.175005e+01
      vertex 7.500271e-01 2.575000e+01 1.175005e+01
      vertex 1.750027e+00 2.400000e+01 1.175005e+01
    endloop
  endfacet
  facet normal 6.123234e-17 0.000000e+00 -1.000000e+00
    outer loop
      vertex 1.750027e+00 2.400000e+01 1.175005e+01
      vertex 7.500271e-01 2.575000e+01 1.175005e+01
      vertex -7.499748e-01 2.900000e+01 1.175005e+01
    endloop
  endfacet
  facet normal 6.123234e-17 0.000000e+00 -1.000000e+00
    outer loop
      vertex 1.750027e+00 2.400000e+01 1.175005e+01
      vertex -7.499748e-01 2.900000e+01 1.175005e+01
      vertex 1.777303e+00 2.432919e+01 1.175005e+01
    endloop
  endfacet
  facet normal 6.123234e-17 0.000000e+00 -1.000000e+00
    outer loop
      vertex 1.777303e+00 2.432919e+01 1.175005e+01
      vertex -7.499748e-01 2.900000e+01 1.175005e+01
      vertex 1.858392e+00 2.464940e+01 1.175005e+01
    endloop
  endfacet
  facet normal 6.123234e-17 0.000000e+00 -1.000000e+00
    outer loop
      vertex 2.656129e+00 2.567433e+01 1.175005e+01
      vertex 2.395463e+00 2.547145e+01 1.175005e+01
      vertex -7.499748e-01 2.900000e+01 1.175005e+01
    endloop
  endfacet
  facet normal 6.123234e-17 0.000000e+00 -1.000000e+00
    outer loop
      vertex -7.499748e-01 2.900000e+01 1.175005e+01
      vertex 2.395463e+00 2.547145e+01 1.175005e+01
      vertex 2.171745e+00 2.522843e+01 1.175005e+01
    endloop
  endfacet
  facet normal 6.123234e-17 0.000000e+00 -1.000000e+00
    outer loop
      vertex -7.499748e-01 2.900000e+01 1.175005e+01
      vertex 2.171745e+00 2.522843e+01 1.175005e+01
      vertex 1.991079e+00 2.495189e+01 1.175005e+01
    endloop
  endfacet
  facet normal 6.123234e-17 0.000000e+00 -1.000000e+00
    outer loop
      vertex 1.991079e+00 2.304811e+01 1.175005e+01
      vertex 2.171745e+00 2.277157e+01 1.175005e+01
      vertex 7.500271e-01 2.225000e+01 1.175005e+01
    endloop
  endfacet
  facet normal 6.123234e-17 0.000000e+00 -1.000000e+00
    outer loop
      vertex 7.500271e-01 2.225000e+01 1.175005e+01
      vertex 2.171745e+00 2.277157e+01 1.175005e+01
      vertex 2.395463e+00 2.252855e+01 1.175005e+01
    endloop
  endfacet
  facet normal 6.123234e-17 0.000000e+00 -1.000000e+00
    outer loop
      vertex 7.500271e-01 2.225000e+01 1.175005e+01
      vertex 2.395463e+00 2.252855e+01 1.175005e+01
      vertex 3.750025e+00 1.900000e+01 1.175005e+01
    endloop
  endfacet
  facet normal 6.123234e-17 0.000000e+00 -1.000000e+00
    outer loop
      vertex 3.750025e+00 1.900000e+01 1.175005e+01
      vertex 2.395463e+00 2.252855e+01 1.175005e+01
      vertex 2.656129e+00 2.232567e+01 1.175005e+01
    endloop
  endfacet
  facet normal 6.123234e-17 0.000000e+00 -1.000000e+00
    outer loop
      vertex 3.750025e+00 1.900000e+01 1.175005e+01
      vertex 2.656129e+00 2.232567e+01 1.175005e+01
      vertex 2.946635e+00 2.216845e+01 1.175005e+01
    endloop
  endfacet
  facet normal 6.123234e-17 0.000000e+00 -1.000000e+00
    outer loop
      vertex 6.688952e+00 2.804508e+01 1.175005e+01
      vertex 4.843922e+00 2.567433e+01 1.175005e+01
      vertex 6.250027e+00 2.833013e+01 1.175005e+01
    endloop
  endfacet
  facet normal 6.123234e-17 0.000000e+00 -1.000000e+00
    outer loop
      vertex 6.250027e+00 2.833013e+01 1.175005e+01
      vertex 4.843922e+00 2.567433e+01 1.175005e+01
      vertex 4.553417e+00 2.583155e+01 1.175005e+01
    endloop
  endfacet
  facet normal 6.123234e-17 0.000000e+00 -1.000000e+00
    outer loop
      vertex 6.250027e+00 2.833013e+01 1.175005e+01
      vertex 4.553417e+00 2.583155e+01 1.175005e+01
      vertex 5.783710e+00 2.856773e+01 1.175005e+01
    endloop
  endfacet
  facet normal 6.123234e-17 0.000000e+00 -1.000000e+00
    outer loop
      vertex 3.750025e+00 2.900000e+01 1.175005e+01
      vertex 3.259055e+00 2.593880e+01 1.175005e+01
      vertex -7.499748e-01 2.900000e+01 1.175005e+01
    endloop
  endfacet
  facet normal 6.123234e-17 0.000000e+00 -1.000000e+00
    outer loop
      vertex -7.499748e-01 2.900000e+01 1.175005e+01
      vertex 3.259055e+00 2.593880e+01 1.175005e+01
      vertex 2.946635e+00 2.583155e+01 1.175005e+01
    endloop
  endfacet
  facet normal 6.123234e-17 0.000000e+00 -1.000000e+00
    outer loop
      vertex -7.499748e-01 2.900000e+01 1.175005e+01
      vertex 2.946635e+00 2.583155e+01 1.175005e+01
      vertex 2.656129e+00 2.567433e+01 1.175005e+01
    endloop
  endfacet
  facet normal 6.123234e-17 0.000000e+00 -1.000000e+00
    outer loop
      vertex 5.783710e+00 2.856773e+01 1.175005e+01
      vertex 4.553417e+00 2.583155e+01 1.175005e+01
      vertex 5.295111e+00 2.875528e+01 1.175005e+01
    endloop
  endfacet
  facet normal 6.123234e-17 0.000000e+00 -1.000000e+00
    outer loop
      vertex 5.295111e+00 2.875528e+01 1.175005e+01
      vertex 4.553417e+00 2.583155e+01 1.175005e+01
      vertex 4.240997e+00 2.593880e+01 1.175005e+01
    endloop
  endfacet
  facet normal 6.123234e-17 0.000000e+00 -1.000000e+00
    outer loop
      vertex 5.295111e+00 2.875528e+01 1.175005e+01
      vertex 4.240997e+00 2.593880e+01 1.175005e+01
      vertex 4.789585e+00 2.889074e+01 1.175005e+01
    endloop
  endfacet
  facet normal 6.123234e-17 0.000000e+00 -1.000000e+00
    outer loop
      vertex 5.328307e+00 2.277157e+01 1.175005e+01
      vertex 7.465748e+00 2.065435e+01 1.175005e+01
      vertex 5.104589e+00 2.252855e+01 1.175005e+01
    endloop
  endfacet
  facet normal 6.123234e-17 0.000000e+00 -1.000000e+00
    outer loop
      vertex 5.104589e+00 2.252855e+01 1.175005e+01
      vertex 7.465748e+00 2.065435e+01 1.175005e+01
      vertex 7.095679e+00 2.028428e+01 1.175005e+01
    endloop
  endfacet
  facet normal 6.123234e-17 0.000000e+00 -1.000000e+00
    outer loop
      vertex 5.104589e+00 2.252855e+01 1.175005e+01
      vertex 7.095679e+00 2.028428e+01 1.175005e+01
      vertex 4.843922e+00 2.232567e+01 1.175005e+01
    endloop
  endfacet
  facet normal 6.123234e-17 0.000000e+00 -1.000000e+00
    outer loop
      vertex 5.750025e+00 2.400000e+01 1.175005e+01
      vertex 8.722636e+00 2.347736e+01 1.175005e+01
      vertex 5.722749e+00 2.367081e+01 1.175005e+01
    endloop
  endfacet
  facet normal 6.123234e-17 0.000000e+00 -1.000000e+00
    outer loop
      vertex 5.722749e+00 2.367081e+01 1.175005e+01
      vertex 8.722636e+00 2.347736e+01 1.175005e+01
      vertex 8.640765e+00 2.296044e+01 1.175005e+01
    endloop
  endfacet
  facet normal 6.123234e-17 0.000000e+00 -1.000000e+00
    outer loop
      vertex 5.722749e+00 2.367081e+01 1.175005e+01
      vertex 8.640765e+00 2.296044e+01 1.175005e+01
      vertex 5.641661e+00 2.335060e+01 1.175005e+01
    endloop
  endfacet
  facet normal 6.123234e-17 0.000000e+00 -1.000000e+00
    outer loop
      vertex 5.508973e+00 2.495189e+01 1.175005e+01
      vertex 8.317753e+00 2.603368e+01 1.175005e+01
      vertex 5.641661e+00 2.464940e+01 1.175005e+01
    endloop
  endfacet
  facet normal 6.123234e-17 0.000000e+00 -1.000000e+00
    outer loop
      vertex 5.641661e+00 2.464940e+01 1.175005e+01
      vertex 8.317753e+00 2.603368e+01 1.175005e+01
      vertex 8.505310e+00 2.554509e+01 1.175005e+01
    endloop
  endfacet
  facet normal 6.123234e-17 0.000000e+00 -1.000000e+00
    outer loop
      vertex 5.641661e+00 2.464940e+01 1.175005e+01
      vertex 8.505310e+00 2.554509e+01 1.175005e+01
      vertex 5.722749e+00 2.432919e+01 1.175005e+01
    endloop
  endfacet
  facet normal 6.123234e-17 0.000000e+00 -1.000000e+00
    outer loop
      vertex 4.789585e+00 2.889074e+01 1.175005e+01
      vertex 4.240997e+00 2.593880e+01 1.175005e+01
      vertex 4.272668e+00 2.897261e+01 1.175005e+01
    endloop
  endfacet
  facet normal 6.123234e-17 0.000000e+00 -1.000000e+00
    outer loop
      vertex 4.272668e+00 2.897261e+01 1.175005e+01
      vertex 4.240997e+00 2.593880e+01 1.175005e+01
      vertex 3.915184e+00 2.599317e+01 1.175005e+01
    endloop
  endfacet
  facet normal 6.123234e-17 0.000000e+00 -1.000000e+00
    outer loop
      vertex 4.272668e+00 2.897261e+01 1.175005e+01
      vertex 3.915184e+00 2.599317e+01 1.175005e+01
      vertex 3.750025e+00 2.900000e+01 1.175005e+01
    endloop
  endfacet
  facet normal 6.123234e-17 0.000000e+00 -1.000000e+00
    outer loop
      vertex 3.750025e+00 2.900000e+01 1.175005e+01
      vertex 3.915184e+00 2.599317e+01 1.175005e+01
      vertex 3.584868e+00 2.599317e+01 1.175005e+01
    endloop
  endfacet
  facet normal 6.123234e-17 0.000000e+00 -1.000000e+00
    outer loop
      vertex 3.750025e+00 2.900000e+01 1.175005e+01
      vertex 3.584868e+00 2.599317e+01 1.175005e+01
      vertex 3.259055e+00 2.593880e+01 1.175005e+01
    endloop
  endfacet
  facet normal 6.123234e-17 0.000000e+00 -1.000000e+00
    outer loop
      vertex 4.553417e+00 2.216845e+01 1.175005e+01
      vertex 5.295111e+00 1.924472e+01 1.175005e+01
      vertex 4.240997e+00 2.206120e+01 1.175005e+01
    endloop
  endfacet
  facet normal 6.123234e-17 0.000000e+00 -1.000000e+00
    outer loop
      vertex 4.240997e+00 2.206120e+01 1.175005e+01
      vertex 5.295111e+00 1.924472e+01 1.175005e+01
      vertex 4.789585e+00 1.910926e+01 1.175005e+01
    endloop
  endfacet
  facet normal 6.123234e-17 0.000000e+00 -1.000000e+00
    outer loop
      vertex 4.240997e+00 2.206120e+01 1.175005e+01
      vertex 4.789585e+00 1.910926e+01 1.175005e+01
      vertex 3.915184e+00 2.200683e+01 1.175005e+01
    endloop
  endfacet
  facet normal 6.123234e-17 0.000000e+00 -1.000000e+00
    outer loop
      vertex 3.915184e+00 2.200683e+01 1.175005e+01
      vertex 4.789585e+00 1.910926e+01 1.175005e+01
      vertex 4.272668e+00 1.902739e+01 1.175005e+01
    endloop
  endfacet
  facet normal 6.123234e-17 0.000000e+00 -1.000000e+00
    outer loop
      vertex 3.915184e+00 2.200683e+01 1.175005e+01
      vertex 4.272668e+00 1.902739e+01 1.175005e+01
      vertex 3.584868e+00 2.200683e+01 1.175005e+01
    endloop
  endfacet
  facet normal 6.123234e-17 0.000000e+00 -1.000000e+00
    outer loop
      vertex 3.584868e+00 2.200683e+01 1.175005e+01
      vertex 4.272668e+00 1.902739e+01 1.175005e+01
      vertex 3.750025e+00 1.900000e+01 1.175005e+01
    endloop
  endfacet
  facet normal 6.123234e-17 0.000000e+00 -1.000000e+00
    outer loop
      vertex 3.584868e+00 2.200683e+01 1.175005e+01
      vertex 3.750025e+00 1.900000e+01 1.175005e+01
      vertex 3.259055e+00 2.206120e+01 1.175005e+01
    endloop
  endfacet
  facet normal 6.123234e-17 0.000000e+00 -1.000000e+00
    outer loop
      vertex 3.259055e+00 2.206120e+01 1.175005e+01
      vertex 3.750025e+00 1.900000e+01 1.175005e+01
      vertex 2.946635e+00 2.216845e+01 1.175005e+01
    endloop
  endfacet
  facet normal 6.123234e-17 0.000000e+00 -1.000000e+00
    outer loop
      vertex 7.095679e+00 2.028428e+01 1.175005e+01
      vertex 6.688952e+00 1.995492e+01 1.175005e+01
      vertex 4.843922e+00 2.232567e+01 1.175005e+01
    endloop
  endfacet
  facet normal 6.123234e-17 0.000000e+00 -1.000000e+00
    outer loop
      vertex 4.843922e+00 2.232567e+01 1.175005e+01
      vertex 6.688952e+00 1.995492e+01 1.175005e+01
      vertex 6.250027e+00 1.966987e+01 1.175005e+01
    endloop
  endfacet
  facet normal 6.123234e-17 0.000000e+00 -1.000000e+00
    outer loop
      vertex 4.843922e+00 2.232567e+01 1.175005e+01
      vertex 6.250027e+00 1.966987e+01 1.175005e+01
      vertex 4.553417e+00 2.216845e+01 1.175005e+01
    endloop
  endfacet
  facet normal 6.123234e-17 0.000000e+00 -1.000000e+00
    outer loop
      vertex 4.553417e+00 2.216845e+01 1.175005e+01
      vertex 6.250027e+00 1.966987e+01 1.175005e+01
      vertex 5.783710e+00 1.943227e+01 1.175005e+01
    endloop
  endfacet
  facet normal 6.123234e-17 0.000000e+00 -1.000000e+00
    outer loop
      vertex 4.553417e+00 2.216845e+01 1.175005e+01
      vertex 5.783710e+00 1.943227e+01 1.175005e+01
      vertex 5.295111e+00 1.924472e+01 1.175005e+01
    endloop
  endfacet
  facet normal 6.123234e-17 0.000000e+00 -1.000000e+00
    outer loop
      vertex 8.640765e+00 2.296044e+01 1.175005e+01
      vertex 8.505310e+00 2.245492e+01 1.175005e+01
      vertex 5.641661e+00 2.335060e+01 1.175005e+01
    endloop
  endfacet
  facet normal 6.123234e-17 0.000000e+00 -1.000000e+00
    outer loop
      vertex 5.641661e+00 2.335060e+01 1.175005e+01
      vertex 8.505310e+00 2.245492e+01 1.175005e+01
      vertex 8.317753e+00 2.196632e+01 1.175005e+01
    endloop
  endfacet
  facet normal 6.123234e-17 0.000000e+00 -1.000000e+00
    outer loop
      vertex 5.641661e+00 2.335060e+01 1.175005e+01
      vertex 8.317753e+00 2.196632e+01 1.175005e+01
      vertex 5.508973e+00 2.304811e+01 1.175005e+01
    endloop
  endfacet
  facet normal 6.123234e-17 0.000000e+00 -1.000000e+00
    outer loop
      vertex 5.508973e+00 2.304811e+01 1.175005e+01
      vertex 8.317753e+00 2.196632e+01 1.175005e+01
      vertex 8.080153e+00 2.150000e+01 1.175005e+01
    endloop
  endfacet
  facet normal 6.123234e-17 0.000000e+00 -1.000000e+00
    outer loop
      vertex 5.508973e+00 2.304811e+01 1.175005e+01
      vertex 8.080153e+00 2.150000e+01 1.175005e+01
      vertex 5.328307e+00 2.277157e+01 1.175005e+01
    endloop
  endfacet
  facet normal 6.123234e-17 0.000000e+00 -1.000000e+00
    outer loop
      vertex 5.328307e+00 2.277157e+01 1.175005e+01
      vertex 8.080153e+00 2.150000e+01 1.175005e+01
      vertex 7.795111e+00 2.106107e+01 1.175005e+01
    endloop
  endfacet
  facet normal 6.123234e-17 0.000000e+00 -1.000000e+00
    outer loop
      vertex 5.328307e+00 2.277157e+01 1.175005e+01
      vertex 7.795111e+00 2.106107e+01 1.175005e+01
      vertex 7.465748e+00 2.065435e+01 1.175005e+01
    endloop
  endfacet
  facet normal 6.123234e-17 0.000000e+00 -1.000000e+00
    outer loop
      vertex 6.688952e+00 2.804508e+01 1.175005e+01
      vertex 7.095679e+00 2.771572e+01 1.175005e+01
      vertex 5.104589e+00 2.547145e+01 1.175005e+01
    endloop
  endfacet
  facet normal 6.123234e-17 0.000000e+00 -1.000000e+00
    outer loop
      vertex 5.104589e+00 2.547145e+01 1.175005e+01
      vertex 7.095679e+00 2.771572e+01 1.175005e+01
      vertex 7.465748e+00 2.734565e+01 1.175005e+01
    endloop
  endfacet
  facet normal 6.123234e-17 0.000000e+00 -1.000000e+00
    outer loop
      vertex 5.104589e+00 2.547145e+01 1.175005e+01
      vertex 7.465748e+00 2.734565e+01 1.175005e+01
      vertex 5.328307e+00 2.522843e+01 1.175005e+01
    endloop
  endfacet
  facet normal 6.123234e-17 0.000000e+00 -1.000000e+00
    outer loop
      vertex 5.328307e+00 2.522843e+01 1.175005e+01
      vertex 7.465748e+00 2.734565e+01 1.175005e+01
      vertex 7.795111e+00 2.693893e+01 1.175005e+01
    endloop
  endfacet
  facet normal 6.123234e-17 0.000000e+00 -1.000000e+00
    outer loop
      vertex 5.328307e+00 2.522843e+01 1.175005e+01
      vertex 7.795111e+00 2.693893e+01 1.175005e+01
      vertex 5.508973e+00 2.495189e+01 1.175005e+01
    endloop
  endfacet
  facet normal 6.123234e-17 0.000000e+00 -1.000000e+00
    outer loop
      vertex 5.508973e+00 2.495189e+01 1.175005e+01
      vertex 7.795111e+00 2.693893e+01 1.175005e+01
      vertex 8.080153e+00 2.650000e+01 1.175005e+01
    endloop
  endfacet
  facet normal 6.123234e-17 0.000000e+00 -1.000000e+00
    outer loop
      vertex 5.508973e+00 2.495189e+01 1.175005e+01
      vertex 8.080153e+00 2.650000e+01 1.175005e+01
      vertex 8.317753e+00 2.603368e+01 1.175005e+01
    endloop
  endfacet
  facet normal 6.123234e-17 0.000000e+00 -1.000000e+00
    outer loop
      vertex 8.505310e+00 2.554509e+01 1.175005e+01
      vertex 8.640765e+00 2.503956e+01 1.175005e+01
      vertex 5.722749e+00 2.432919e+01 1.175005e+01
    endloop
  endfacet
  facet normal 6.123234e-17 0.000000e+00 -1.000000e+00
    outer loop
      vertex 5.722749e+00 2.432919e+01 1.175005e+01
      vertex 8.640765e+00 2.503956e+01 1.175005e+01
      vertex 8.722636e+00 2.452264e+01 1.175005e+01
    endloop
  endfacet
  facet normal 6.123234e-17 0.000000e+00 -1.000000e+00
    outer loop
      vertex 5.722749e+00 2.432919e+01 1.175005e+01
      vertex 8.722636e+00 2.452264e+01 1.175005e+01
      vertex 5.750025e+00 2.400000e+01 1.175005e+01
    endloop
  endfacet
  facet normal 6.123234e-17 0.000000e+00 -1.000000e+00
    outer loop
      vertex 5.750025e+00 2.400000e+01 1.175005e+01
      vertex 8.722636e+00 2.452264e+01 1.175005e+01
      vertex 8.750025e+00 2.400000e+01 1.175005e+01
    endloop
  endfacet
  facet normal 6.123234e-17 0.000000e+00 -1.000000e+00
    outer loop
      vertex 5.750025e+00 2.400000e+01 1.175005e+01
      vertex 8.750025e+00 2.400000e+01 1.175005e+01
      vertex 8.722636e+00 2.347736e+01 1.175005e+01
    endloop
  endfacet
  facet normal -6.123234e-17 0.000000e+00 1.000000e+00
    outer loop
      vertex -7.499748e-01 2.900000e+01 1.575005e+01
      vertex -7.499748e-01 2.575000e+01 1.575005e+01
      vertex 3.750025e+00 2.900000e+01 1.575005e+01
    endloop
  endfacet
  facet normal -6.123234e-17 0.000000e+00 1.000000e+00
    outer loop
      vertex 3.750025e+00 2.900000e+01 1.575005e+01
      vertex -7.499748e-01 2.575000e+01 1.575005e+01
      vertex 7.500271e-01 2.575000e+01 1.575005e+01
    endloop
  endfacet
  facet normal -6.123234e-17 0.000000e+00 1.000000e+00
    outer loop
      vertex -7.499748e-01 2.225000e+01 1.575005e+01
      vertex -7.499748e-01 1.900000e+01 1.575005e+01
      vertex 7.500271e-01 2.225000e+01 1.575005e+01
    endloop
  endfacet
  facet normal -6.123234e-17 0.000000e+00 1.000000e+00
    outer loop
      vertex 7.500271e-01 2.225000e+01 1.575005e+01
      vertex -7.499748e-01 1.900000e+01 1.575005e+01
      vertex 3.750025e+00 1.900000e+01 1.575005e+01
    endloop
  endfacet
  facet normal -6.123234e-17 0.000000e+00 1.000000e+00
    outer loop
      vertex 3.750025e+00 1.900000e+01 1.575005e+01
      vertex 2.656129e+00 2.232567e+01 1.575005e+01
      vertex 7.500271e-01 2.225000e+01 1.575005e+01
    endloop
  endfacet
  facet normal -6.123234e-17 0.000000e+00 1.000000e+00
    outer loop
      vertex 7.500271e-01 2.225000e+01 1.575005e+01
      vertex 2.656129e+00 2.232567e+01 1.575005e+01
      vertex 2.395463e+00 2.252855e+01 1.575005e+01
    endloop
  endfacet
  facet normal -6.123234e-17 0.000000e+00 1.000000e+00
    outer loop
      vertex 7.500271e-01 2.225000e+01 1.575005e+01
      vertex 2.395463e+00 2.252855e+01 1.575005e+01
      vertex 2.171745e+00 2.277157e+01 1.575005e+01
    endloop
  endfacet
  facet normal -6.123234e-17 0.000000e+00 1.000000e+00
    outer loop
      vertex 1.750027e+00 2.400000e+01 1.575005e+01
      vertex 7.500271e-01 2.575000e+01 1.575005e+01
      vertex 1.777303e+00 2.367081e+01 1.575005e+01
    endloop
  endfacet
  facet normal -6.123234e-17 0.000000e+00 1.000000e+00
    outer loop
      vertex 1.777303e+00 2.367081e+01 1.575005e+01
      vertex 7.500271e-01 2.575000e+01 1.575005e+01
      vertex 7.500271e-01 2.225000e+01 1.575005e+01
    endloop
  endfacet
  facet normal -6.123234e-17 0.000000e+00 1.000000e+00
    outer loop
      vertex 1.750027e+00 2.400000e+01 1.575005e+01
      vertex 1.777303e+00 2.432919e+01 1.575005e+01
      vertex 7.500271e-01 2.575000e+01 1.575005e+01
    endloop
  endfacet
  facet normal -6.123234e-17 0.000000e+00 1.000000e+00
    outer loop
      vertex 7.500271e-01 2.575000e+01 1.575005e+01
      vertex 1.777303e+00 2.432919e+01 1.575005e+01
      vertex 1.858392e+00 2.464940e+01 1.575005e+01
    endloop
  endfacet
  facet normal -6.123234e-17 0.000000e+00 1.000000e+00
    outer loop
      vertex 7.500271e-01 2.575000e+01 1.575005e+01
      vertex 1.858392e+00 2.464940e+01 1.575005e+01
      vertex 1.991079e+00 2.495189e+01 1.575005e+01
    endloop
  endfacet
  facet normal -6.123234e-17 0.000000e+00 1.000000e+00
    outer loop
      vertex 5.750025e+00 2.400000e+01 1.575005e+01
      vertex 5.722749e+00 2.367081e+01 1.575005e+01
      vertex 8.722636e+00 2.347736e+01 1.575005e+01
    endloop
  endfacet
  facet normal -6.123234e-17 0.000000e+00 1.000000e+00
    outer loop
      vertex 5.104589e+00 2.252855e+01 1.575005e+01
      vertex 7.465748e+00 2.065435e+01 1.575005e+01
      vertex 5.328307e+00 2.277157e+01 1.575005e+01
    endloop
  endfacet
  facet normal -6.123234e-17 0.000000e+00 1.000000e+00
    outer loop
      vertex 5.328307e+00 2.277157e+01 1.575005e+01
      vertex 7.465748e+00 2.065435e+01 1.575005e+01
      vertex 7.795111e+00 2.106107e+01 1.575005e+01
    endloop
  endfacet
  facet normal -6.123234e-17 0.000000e+00 1.000000e+00
    outer loop
      vertex 5.328307e+00 2.277157e+01 1.575005e+01
      vertex 7.795111e+00 2.106107e+01 1.575005e+01
      vertex 5.508973e+00 2.304811e+01 1.575005e+01
    endloop
  endfacet
  facet normal -6.123234e-17 0.000000e+00 1.000000e+00
    outer loop
      vertex 2.171745e+00 2.277157e+01 1.575005e+01
      vertex 1.991079e+00 2.304811e+01 1.575005e+01
      vertex 7.500271e-01 2.225000e+01 1.575005e+01
    endloop
  endfacet
  facet normal -6.123234e-17 0.000000e+00 1.000000e+00
    outer loop
      vertex 7.500271e-01 2.225000e+01 1.575005e+01
      vertex 1.991079e+00 2.304811e+01 1.575005e+01
      vertex 1.858392e+00 2.335060e+01 1.575005e+01
    endloop
  endfacet
  facet normal -6.123234e-17 0.000000e+00 1.000000e+00
    outer loop
      vertex 7.500271e-01 2.225000e+01 1.575005e+01
      vertex 1.858392e+00 2.335060e+01 1.575005e+01
      vertex 1.777303e+00 2.367081e+01 1.575005e+01
    endloop
  endfacet
  facet normal -6.123234e-17 0.000000e+00 1.000000e+00
    outer loop
      vertex 5.641661e+00 2.464940e+01 1.575005e+01
      vertex 8.317753e+00 2.603368e+01 1.575005e+01
      vertex 5.508973e+00 2.495189e+01 1.575005e+01
    endloop
  endfacet
  facet normal -6.123234e-17 0.000000e+00 1.000000e+00
    outer loop
      vertex 5.508973e+00 2.495189e+01 1.575005e+01
      vertex 8.317753e+00 2.603368e+01 1.575005e+01
      vertex 8.080153e+00 2.650000e+01 1.575005e+01
    endloop
  endfacet
  facet normal -6.123234e-17 0.000000e+00 1.000000e+00
    outer loop
      vertex 5.508973e+00 2.495189e+01 1.575005e+01
      vertex 8.080153e+00 2.650000e+01 1.575005e+01
      vertex 5.328307e+00 2.522843e+01 1.575005e+01
    endloop
  endfacet
  facet normal -6.123234e-17 0.000000e+00 1.000000e+00
    outer loop
      vertex 8.722636e+00 2.347736e+01 1.575005e+01
      vertex 8.750025e+00 2.400000e+01 1.575005e+01
      vertex 5.750025e+00 2.400000e+01 1.575005e+01
    endloop
  endfacet
  facet normal -6.123234e-17 0.000000e+00 1.000000e+00
    outer loop
      vertex 5.750025e+00 2.400000e+01 1.575005e+01
      vertex 8.750025e+00 2.400000e+01 1.575005e+01
      vertex 8.722636e+00 2.452264e+01 1.575005e+01
    endloop
  endfacet
  facet normal -6.123234e-17 0.000000e+00 1.000000e+00
    outer loop
      vertex 5.750025e+00 2.400000e+01 1.575005e+01
      vertex 8.722636e+00 2.452264e+01 1.575005e+01
      vertex 5.722749e+00 2.432919e+01 1.575005e+01
    endloop
  endfacet
  facet normal -6.123234e-17 0.000000e+00 1.000000e+00
    outer loop
      vertex 5.722749e+00 2.432919e+01 1.575005e+01
      vertex 8.722636e+00 2.452264e+01 1.575005e+01
      vertex 8.640765e+00 2.503956e+01 1.575005e+01
    endloop
  endfacet
  facet normal -6.123234e-17 0.000000e+00 1.000000e+00
    outer loop
      vertex 5.722749e+00 2.432919e+01 1.575005e+01
      vertex 8.640765e+00 2.503956e+01 1.575005e+01
      vertex 5.641661e+00 2.464940e+01 1.575005e+01
    endloop
  endfacet
  facet normal -6.123234e-17 0.000000e+00 1.000000e+00
    outer loop
      vertex 5.641661e+00 2.464940e+01 1.575005e+01
      vertex 8.640765e+00 2.503956e+01 1.575005e+01
      vertex 8.505310e+00 2.554509e+01 1.575005e+01
    endloop
  endfacet
  facet normal -6.123234e-17 0.000000e+00 1.000000e+00
    outer loop
      vertex 5.641661e+00 2.464940e+01 1.575005e+01
      vertex 8.505310e+00 2.554509e+01 1.575005e+01
      vertex 8.317753e+00 2.603368e+01 1.575005e+01
    endloop
  endfacet
  facet normal -6.123234e-17 0.000000e+00 1.000000e+00
    outer loop
      vertex 4.553417e+00 2.216845e+01 1.575005e+01
      vertex 6.250027e+00 1.966987e+01 1.575005e+01
      vertex 4.843922e+00 2.232567e+01 1.575005e+01
    endloop
  endfacet
  facet normal -6.123234e-17 0.000000e+00 1.000000e+00
    outer loop
      vertex 4.843922e+00 2.232567e+01 1.575005e+01
      vertex 6.250027e+00 1.966987e+01 1.575005e+01
      vertex 6.688952e+00 1.995492e+01 1.575005e+01
    endloop
  endfacet
  facet normal -6.123234e-17 0.000000e+00 1.000000e+00
    outer loop
      vertex 4.843922e+00 2.232567e+01 1.575005e+01
      vertex 6.688952e+00 1.995492e+01 1.575005e+01
      vertex 5.104589e+00 2.252855e+01 1.575005e+01
    endloop
  endfacet
  facet normal -6.123234e-17 0.000000e+00 1.000000e+00
    outer loop
      vertex 5.104589e+00 2.252855e+01 1.575005e+01
      vertex 6.688952e+00 1.995492e+01 1.575005e+01
      vertex 7.095679e+00 2.028428e+01 1.575005e+01
    endloop
  endfacet
  facet normal -6.123234e-17 0.000000e+00 1.000000e+00
    outer loop
      vertex 5.104589e+00 2.252855e+01 1.575005e+01
      vertex 7.095679e+00 2.028428e+01 1.575005e+01
      vertex 7.465748e+00 2.065435e+01 1.575005e+01
    endloop
  endfacet
  facet normal -6.123234e-17 0.000000e+00 1.000000e+00
    outer loop
      vertex 4.240997e+00 2.206120e+01 1.575005e+01
      vertex 5.295111e+00 1.924472e+01 1.575005e+01
      vertex 4.553417e+00 2.216845e+01 1.575005e+01
    endloop
  endfacet
  facet normal -6.123234e-17 0.000000e+00 1.000000e+00
    outer loop
      vertex 4.553417e+00 2.216845e+01 1.575005e+01
      vertex 5.295111e+00 1.924472e+01 1.575005e+01
      vertex 5.783710e+00 1.943227e+01 1.575005e+01
    endloop
  endfacet
  facet normal -6.123234e-17 0.000000e+00 1.000000e+00
    outer loop
      vertex 4.553417e+00 2.216845e+01 1.575005e+01
      vertex 5.783710e+00 1.943227e+01 1.575005e+01
      vertex 6.250027e+00 1.966987e+01 1.575005e+01
    endloop
  endfacet
  facet normal -6.123234e-17 0.000000e+00 1.000000e+00
    outer loop
      vertex 3.584868e+00 2.200683e+01 1.575005e+01
      vertex 3.259055e+00 2.206120e+01 1.575005e+01
      vertex 3.750025e+00 1.900000e+01 1.575005e+01
    endloop
  endfacet
  facet normal -6.123234e-17 0.000000e+00 1.000000e+00
    outer loop
      vertex 3.750025e+00 1.900000e+01 1.575005e+01
      vertex 3.259055e+00 2.206120e+01 1.575005e+01
      vertex 2.946635e+00 2.216845e+01 1.575005e+01
    endloop
  endfacet
  facet normal -6.123234e-17 0.000000e+00 1.000000e+00
    outer loop
      vertex 3.750025e+00 1.900000e+01 1.575005e+01
      vertex 2.946635e+00 2.216845e+01 1.575005e+01
      vertex 2.656129e+00 2.232567e+01 1.575005e+01
    endloop
  endfacet
  facet normal -6.123234e-17 0.000000e+00 1.000000e+00
    outer loop
      vertex 1.991079e+00 2.495189e+01 1.575005e+01
      vertex 2.171745e+00 2.522843e+01 1.575005e+01
      vertex 7.500271e-01 2.575000e+01 1.575005e+01
    endloop
  endfacet
  facet normal -6.123234e-17 0.000000e+00 1.000000e+00
    outer loop
      vertex 7.500271e-01 2.575000e+01 1.575005e+01
      vertex 2.171745e+00 2.522843e+01 1.575005e+01
      vertex 2.395463e+00 2.547145e+01 1.575005e+01
    endloop
  endfacet
  facet normal -6.123234e-17 0.000000e+00 1.000000e+00
    outer loop
      vertex 7.500271e-01 2.575000e+01 1.575005e+01
      vertex 2.395463e+00 2.547145e+01 1.575005e+01
      vertex 3.750025e+00 2.900000e+01 1.575005e+01
    endloop
  endfacet
  facet normal -6.123234e-17 0.000000e+00 1.000000e+00
    outer loop
      vertex 3.750025e+00 2.900000e+01 1.575005e+01
      vertex 2.395463e+00 2.547145e+01 1.575005e+01
      vertex 2.656129e+00 2.567433e+01 1.575005e+01
    endloop
  endfacet
  facet normal -6.123234e-17 0.000000e+00 1.000000e+00
    outer loop
      vertex 3.750025e+00 2.900000e+01 1.575005e+01
      vertex 2.656129e+00 2.567433e+01 1.575005e+01
      vertex 2.946635e+00 2.583155e+01 1.575005e+01
    endloop
  endfacet
  facet normal -6.123234e-17 0.000000e+00 1.000000e+00
    outer loop
      vertex 7.795111e+00 2.106107e+01 1.575005e+01
      vertex 8.080153e+00 2.150000e+01 1.575005e+01
      vertex 5.508973e+00 2.304811e+01 1.575005e+01
    endloop
  endfacet
  facet normal -6.123234e-17 0.000000e+00 1.000000e+00
    outer loop
      vertex 5.508973e+00 2.304811e+01 1.575005e+01
      vertex 8.080153e+00 2.150000e+01 1.575005e+01
      vertex 8.317753e+00 2.196632e+01 1.575005e+01
    endloop
  endfacet
  facet normal -6.123234e-17 0.000000e+00 1.000000e+00
    outer loop
      vertex 5.508973e+00 2.304811e+01 1.575005e+01
      vertex 8.317753e+00 2.196632e+01 1.575005e+01
      vertex 5.641661e+00 2.335060e+01 1.575005e+01
    endloop
  endfacet
  facet normal -6.123234e-17 0.000000e+00 1.000000e+00
    outer loop
      vertex 5.641661e+00 2.335060e+01 1.575005e+01
      vertex 8.317753e+00 2.196632e+01 1.575005e+01
      vertex 8.505310e+00 2.245492e+01 1.575005e+01
    endloop
  endfacet
  facet normal -6.123234e-17 0.000000e+00 1.000000e+00
    outer loop
      vertex 5.641661e+00 2.335060e+01 1.575005e+01
      vertex 8.505310e+00 2.245492e+01 1.575005e+01
      vertex 5.722749e+00 2.367081e+01 1.575005e+01
    endloop
  endfacet
  facet normal -6.123234e-17 0.000000e+00 1.000000e+00
    outer loop
      vertex 5.722749e+00 2.367081e+01 1.575005e+01
      vertex 8.505310e+00 2.245492e+01 1.575005e+01
      vertex 8.640765e+00 2.296044e+01 1.575005e+01
    endloop
  endfacet
  facet normal -6.123234e-17 0.000000e+00 1.000000e+00
    outer loop
      vertex 5.722749e+00 2.367081e+01 1.575005e+01
      vertex 8.640765e+00 2.296044e+01 1.575005e+01
      vertex 8.722636e+00 2.347736e+01 1.575005e+01
    endloop
  endfacet
  facet normal -6.123234e-17 0.000000e+00 1.000000e+00
    outer loop
      vertex 3.584868e+00 2.200683e+01 1.575005e+01
      vertex 3.750025e+00 1.900000e+01 1.575005e+01
      vertex 3.915184e+00 2.200683e+01 1.575005e+01
    endloop
  endfacet
  facet normal -6.123234e-17 0.000000e+00 1.000000e+00
    outer loop
      vertex 3.915184e+00 2.200683e+01 1.575005e+01
      vertex 3.750025e+00 1.900000e+01 1.575005e+01
      vertex 4.272668e+00 1.902739e+01 1.575005e+01
    endloop
  endfacet
  facet normal -6.123234e-17 0.000000e+00 1.000000e+00
    outer loop
      vertex 3.915184e+00 2.200683e+01 1.575005e+01
      vertex 4.272668e+00 1.902739e+01 1.575005e+01
      vertex 4.240997e+00 2.206120e+01 1.575005e+01
    endloop
  endfacet
  facet normal -6.123234e-17 0.000000e+00 1.000000e+00
    outer loop
      vertex 4.240997e+00 2.206120e+01 1.575005e+01
      vertex 4.272668e+00 1.902739e+01 1.575005e+01
      vertex 4.789585e+00 1.910926e+01 1.575005e+01
    endloop
  endfacet
  facet normal -6.123234e-17 0.000000e+00 1.000000e+00
    outer loop
      vertex 4.240997e+00 2.206120e+01 1.575005e+01
      vertex 4.789585e+00 1.910926e+01 1.575005e+01
      vertex 5.295111e+00 1.924472e+01 1.575005e+01
    endloop
  endfacet
  facet normal -6.123234e-17 0.000000e+00 1.000000e+00
    outer loop
      vertex 4.553417e+00 2.583155e+01 1.575005e+01
      vertex 4.843922e+00 2.567433e+01 1.575005e+01
      vertex 6.250027e+00 2.833013e+01 1.575005e+01
    endloop
  endfacet
  facet normal -6.123234e-17 0.000000e+00 1.000000e+00
    outer loop
      vertex 6.250027e+00 2.833013e+01 1.575005e+01
      vertex 5.783710e+00 2.856773e+01 1.575005e+01
      vertex 4.553417e+00 2.583155e+01 1.575005e+01
    endloop
  endfacet
  facet normal -6.123234e-17 0.000000e+00 1.000000e+00
    outer loop
      vertex 4.553417e+00 2.583155e+01 1.575005e+01
      vertex 5.783710e+00 2.856773e+01 1.575005e+01
      vertex 5.295111e+00 2.875528e+01 1.575005e+01
    endloop
  endfacet
  facet normal -6.123234e-17 0.000000e+00 1.000000e+00
    outer loop
      vertex 4.553417e+00 2.583155e+01 1.575005e+01
      vertex 5.295111e+00 2.875528e+01 1.575005e+01
      vertex 4.240997e+00 2.593880e+01 1.575005e+01
    endloop
  endfacet
  facet normal -6.123234e-17 0.000000e+00 1.000000e+00
    outer loop
      vertex 4.240997e+00 2.593880e+01 1.575005e+01
      vertex 5.295111e+00 2.875528e+01 1.575005e+01
      vertex 4.789585e+00 2.889074e+01 1.575005e+01
    endloop
  endfacet
  facet normal -6.123234e-17 0.000000e+00 1.000000e+00
    outer loop
      vertex 4.240997e+00 2.593880e+01 1.575005e+01
      vertex 4.789585e+00 2.889074e+01 1.575005e+01
      vertex 3.915184e+00 2.599317e+01 1.575005e+01
    endloop
  endfacet
  facet normal -6.123234e-17 0.000000e+00 1.000000e+00
    outer loop
      vertex 3.915184e+00 2.599317e+01 1.575005e+01
      vertex 4.789585e+00 2.889074e+01 1.575005e+01
      vertex 4.272668e+00 2.897261e+01 1.575005e+01
    endloop
  endfacet
  facet normal -6.123234e-17 0.000000e+00 1.000000e+00
    outer loop
      vertex 3.915184e+00 2.599317e+01 1.575005e+01
      vertex 4.272668e+00 2.897261e+01 1.575005e+01
      vertex 3.584868e+00 2.599317e+01 1.575005e+01
    endloop
  endfacet
  facet normal -6.123234e-17 0.000000e+00 1.000000e+00
    outer loop
      vertex 3.584868e+00 2.599317e+01 1.575005e+01
      vertex 4.272668e+00 2.897261e+01 1.575005e+01
      vertex 3.750025e+00 2.900000e+01 1.575005e+01
    endloop
  endfacet
  facet normal -6.123234e-17 0.000000e+00 1.000000e+00
    outer loop
      vertex 3.584868e+00 2.599317e+01 1.575005e+01
      vertex 3.750025e+00 2.900000e+01 1.575005e+01
      vertex 3.259055e+00 2.593880e+01 1.575005e+01
    endloop
  endfacet
  facet normal -6.123234e-17 0.000000e+00 1.000000e+00
    outer loop
      vertex 3.259055e+00 2.593880e+01 1.575005e+01
      vertex 3.750025e+00 2.900000e+01 1.575005e+01
      vertex 2.946635e+00 2.583155e+01 1.575005e+01
    endloop
  endfacet
  facet normal -6.123234e-17 0.000000e+00 1.000000e+00
    outer loop
      vertex 8.080153e+00 2.650000e+01 1.575005e+01
      vertex 7.795111e+00 2.693893e+01 1.575005e+01
      vertex 5.328307e+00 2.522843e+01 1.575005e+01
    endloop
  endfacet
  facet normal -6.123234e-17 0.000000e+00 1.000000e+00
    outer loop
      vertex 5.328307e+00 2.522843e+01 1.575005e+01
      vertex 7.795111e+00 2.693893e+01 1.575005e+01
      vertex 7.465748e+00 2.734565e+01 1.575005e+01
    endloop
  endfacet
  facet normal -6.123234e-17 0.000000e+00 1.000000e+00
    outer loop
      vertex 5.328307e+00 2.522843e+01 1.575005e+01
      vertex 7.465748e+00 2.734565e+01 1.575005e+01
      vertex 5.104589e+00 2.547145e+01 1.575005e+01
    endloop
  endfacet
  facet normal -6.123234e-17 0.000000e+00 1.000000e+00
    outer loop
      vertex 5.104589e+00 2.547145e+01 1.575005e+01
      vertex 7.465748e+00 2.734565e+01 1.575005e+01
      vertex 7.095679e+00 2.771572e+01 1.575005e+01
    endloop
  endfacet
  facet normal -6.123234e-17 0.000000e+00 1.000000e+00
    outer loop
      vertex 5.104589e+00 2.547145e+01 1.575005e+01
      vertex 7.095679e+00 2.771572e+01 1.575005e+01
      vertex 4.843922e+00 2.567433e+01 1.575005e+01
    endloop
  endfacet
  facet normal -6.123234e-17 0.000000e+00 1.000000e+00
    outer loop
      vertex 4.843922e+00 2.567433e+01 1.575005e+01
      vertex 7.095679e+00 2.771572e+01 1.575005e+01
      vertex 6.688952e+00 2.804508e+01 1.575005e+01
    endloop
  endfacet
  facet normal -6.123234e-17 0.000000e+00 1.000000e+00
    outer loop
      vertex 4.843922e+00 2.567433e+01 1.575005e+01
      vertex 6.688952e+00 2.804508e+01 1.575005e+01
      vertex 6.250027e+00 2.833013e+01 1.575005e+01
    endloop
  endfacet
  facet normal 3.488532e-02 9.993913e-01 2.136110e-18
    outer loop
      vertex 3.750025e+00 2.900000e+01 1.175005e+01
      vertex 3.750025e+00 2.900000e+01 1.575005e+01
      vertex 4.272668e+00 2.897261e+01 1.575005e+01
    endloop
  endfacet
  facet normal 6.977063e-02 9.975630e-01 4.272219e-18
    outer loop
      vertex 3.750025e+00 2.900000e+01 1.175005e+01
      vertex 4.272668e+00 2.897261e+01 1.575005e+01
      vertex 4.272668e+00 2.897261e+01 1.175005e+01
    endloop
  endfacet
  facet normal 1.391590e-01 9.902700e-01 8.521033e-18
    outer loop
      vertex 4.272668e+00 2.897261e+01 1.175005e+01
      vertex 4.272668e+00 2.897261e+01 1.575005e+01
      vertex 4.789585e+00 2.889074e+01 1.575005e+01
    endloop
  endfacet
  facet normal 1.736622e-01 9.848053e-01 1.063374e-17
    outer loop
      vertex 4.272668e+00 2.897261e+01 1.175005e+01
      vertex 4.789585e+00 2.889074e+01 1.575005e+01
      vertex 4.789585e+00 2.889074e+01 1.175005e+01
    endloop
  endfacet
  facet normal 2.419081e-01 9.702991e-01 1.481260e-17
    outer loop
      vertex 4.789585e+00 2.889074e+01 1.175005e+01
      vertex 4.789585e+00 2.889074e+01 1.575005e+01
      vertex 5.295111e+00 2.875528e+01 1.575005e+01
    endloop
  endfacet
  facet normal 2.756510e-01 9.612578e-01 1.687875e-17
    outer loop
      vertex 4.789585e+00 2.889074e+01 1.175005e+01
      vertex 5.295111e+00 2.875528e+01 1.575005e+01
      vertex 5.295111e+00 2.875528e+01 1.175005e+01
    endloop
  endfacet
  facet normal 3.420068e-01 9.396974e-01 2.094188e-17
    outer loop
      vertex 5.295111e+00 2.875528e+01 1.175005e+01
      vertex 5.295111e+00 2.875528e+01 1.575005e+01
      vertex 5.783710e+00 2.856773e+01 1.575005e+01
    endloop
  endfacet
  facet normal 3.746197e-01 9.271786e-01 2.293884e-17
    outer loop
      vertex 5.295111e+00 2.875528e+01 1.175005e+01
      vertex 5.783710e+00 2.856773e+01 1.575005e+01
      vertex 5.783710e+00 2.856773e+01 1.175005e+01
    endloop
  endfacet
  facet normal 4.383584e-01 8.988003e-01 2.684171e-17
    outer loop
      vertex 5.783710e+00 2.856773e+01 1.175005e+01
      vertex 5.783710e+00 2.856773e+01 1.575005e+01
      vertex 6.250027e+00 2.833013e+01 1.575005e+01
    endloop
  endfacet
  facet normal 4.694841e-01 8.829409e-01 2.874761e-17
    outer loop
      vertex 5.783710e+00 2.856773e+01 1.175005e+01
      vertex 6.250027e+00 2.833013e+01 1.575005e+01
      vertex 6.250027e+00 2.833013e+01 1.175005e+01
    endloop
  endfacet
  facet normal 5.299072e-01 8.480556e-01 3.244746e-17
    outer loop
      vertex 6.250027e+00 2.833013e+01 1.175005e+01
      vertex 6.250027e+00 2.833013e+01 1.575005e+01
      vertex 6.688952e+00 2.804508e+01 1.575005e+01
    endloop
  endfacet
  facet normal 5.592046e-01 8.290296e-01 3.424141e-17
    outer loop
      vertex 6.250027e+00 2.833013e+01 1.175005e+01
      vertex 6.688952e+00 2.804508e+01 1.575005e+01
      vertex 6.688952e+00 2.804508e+01 1.175005e+01
    endloop
  endfacet
  facet normal 6.156502e-01 7.880195e-01 3.769770e-17
    outer loop
      vertex 6.688952e+00 2.804508e+01 1.175005e+01
      vertex 6.688952e+00 2.804508e+01 1.575005e+01
      vertex 7.095679e+00 2.771572e+01 1.575005e+01
    endloop
  endfacet
  facet normal 6.427984e-01 7.660353e-01 3.936005e-17
    outer loop
      vertex 6.688952e+00 2.804508e+01 1.175005e+01
      vertex 7.095679e+00 2.771572e+01 1.575005e+01
      vertex 7.095679e+00 2.771572e+01 1.175005e+01
    endloop
  endfacet
  facet normal 6.946482e-01 7.193497e-01 4.253494e-17
    outer loop
      vertex 7.095679e+00 2.771572e+01 1.175005e+01
      vertex 7.095679e+00 2.771572e+01 1.575005e+01
      vertex 7.465748e+00 2.734565e+01 1.575005e+01
    endloop
  endfacet
  facet normal 7.193497e-01 6.946482e-01 4.404747e-17
    outer loop
      vertex 7.095679e+00 2.771572e+01 1.175005e+01
      vertex 7.465748e+00 2.734565e+01 1.575005e+01
      vertex 7.465748e+00 2.734565e+01 1.175005e+01
    endloop
  endfacet
  facet normal 7.660353e-01 6.427985e-01 4.690613e-17
    outer loop
      vertex 7.465748e+00 2.734565e+01 1.175005e+01
      vertex 7.465748e+00 2.734565e+01 1.575005e+01
      vertex 7.795111e+00 2.693893e+01 1.575005e+01
    endloop
  endfacet
  facet normal 7.880195e-01 6.156502e-01 4.825228e-17
    outer loop
      vertex 7.465748e+00 2.734565e+01 1.175005e+01
      vertex 7.795111e+00 2.693893e+01 1.575005e+01
      vertex 7.795111e+00 2.693893e+01 1.175005e+01
    endloop
  endfacet
  facet normal 8.290296e-01 5.592046e-01 5.076342e-17
    outer loop
      vertex 7.795111e+00 2.693893e+01 1.175005e+01
      vertex 7.795111e+00 2.693893e+01 1.575005e+01
      vertex 8.080153e+00 2.650000e+01 1.575005e+01
    endloop
  endfacet
  facet normal 8.480556e-01 5.299072e-01 5.192843e-17
    outer loop
      vertex 7.795111e+00 2.693893e+01 1.175005e+01
      vertex 8.080153e+00 2.650000e+01 1.575005e+01
      vertex 8.080153e+00 2.650000e+01 1.175005e+01
    endloop
  endfacet
  facet normal 8.829409e-01 4.694841e-01 5.406454e-17
    outer loop
      vertex 8.080153e+00 2.650000e+01 1.175005e+01
      vertex 8.080153e+00 2.650000e+01 1.575005e+01
      vertex 8.317753e+00 2.603368e+01 1.575005e+01
    endloop
  endfacet
  facet normal 8.988003e-01 4.383584e-01 5.503564e-17
    outer loop
      vertex 8.080153e+00 2.650000e+01 1.175005e+01
      vertex 8.317753e+00 2.603368e+01 1.575005e+01
      vertex 8.317753e+00 2.603368e+01 1.175005e+01
    endloop
  endfacet
  facet normal 9.271786e-01 3.746197e-01 5.677331e-17
    outer loop
      vertex 8.317753e+00 2.603368e+01 1.175005e+01
      vertex 8.317753e+00 2.603368e+01 1.575005e+01
      vertex 8.505310e+00 2.554509e+01 1.575005e+01
    endloop
  endfacet
  facet normal 9.396974e-01 3.420068e-01 5.753987e-17
    outer loop
      vertex 8.317753e+00 2.603368e+01 1.175005e+01
      vertex 8.505310e+00 2.554509e+01 1.575005e+01
      vertex 8.505310e+00 2.554509e+01 1.175005e+01
    endloop
  endfacet
  facet normal 9.612578e-01 2.756510e-01 5.886006e-17
    outer loop
      vertex 8.505310e+00 2.554509e+01 1.175005e+01
      vertex 8.505310e+00 2.554509e+01 1.575005e+01
      vertex 8.640765e+00 2.503956e+01 1.575005e+01
    endloop
  endfacet
  facet normal 9.702991e-01 2.419081e-01 5.941368e-17
    outer loop
      vertex 8.505310e+00 2.554509e+01 1.175005e+01
      vertex 8.640765e+00 2.503956e+01 1.575005e+01
      vertex 8.640765e+00 2.503956e+01 1.175005e+01
    endloop
  endfacet
  facet normal 9.848053e-01 1.736622e-01 6.030193e-17
    outer loop
      vertex 8.640765e+00 2.503956e+01 1.175005e+01
      vertex 8.640765e+00 2.503956e+01 1.575005e+01
      vertex 8.722636e+00 2.452264e+01 1.575005e+01
    endloop
  endfacet
  facet normal 9.902700e-01 1.391590e-01 6.063655e-17
    outer loop
      vertex 8.640765e+00 2.503956e+01 1.175005e+01
      vertex 8.722636e+00 2.452264e+01 1.575005e+01
      vertex 8.722636e+00 2.452264e+01 1.175005e+01
    endloop
  endfacet
  facet normal 9.975630e-01 6.977063e-02 6.108312e-17
    outer loop
      vertex 8.722636e+00 2.452264e+01 1.175005e+01
      vertex 8.722636e+00 2.452264e+01 1.575005e+01
      vertex 8.750025e+00 2.400000e+01 1.575005e+01
    endloop
  endfacet
  facet normal 9.993913e-01 3.488532e-02 6.119507e-17
    outer loop
      vertex 8.722636e+00 2.452264e+01 1.175005e+01
      vertex 8.750025e+00 2.400000e+01 1.575005e+01
      vertex 8.750025e+00 2.400000e+01 1.175005e+01
    endloop
  endfacet
  facet normal 9.993913e-01 -3.488532e-02 6.119507e-17
    outer loop
      vertex 8.750025e+00 2.400000e+01 1.175005e+01
      vertex 8.750025e+00 2.400000e+01 1.575005e+01
      vertex 8.722636e+00 2.347736e+01 1.575005e+01
    endloop
  endfacet
  facet normal 9.975630e-01 -6.977063e-02 6.108312e-17
    outer loop
      vertex 8.750025e+00 2.400000e+01 1.175005e+01
      vertex 8.722636e+00 2.347736e+01 1.575005e+01
      vertex 8.722636e+00 2.347736e+01 1.175005e+01
    endloop
  endfacet
  facet normal 9.902700e-01 -1.391590e-01 6.063655e-17
    outer loop
      vertex 8.722636e+00 2.347736e+01 1.175005e+01
      vertex 8.722636e+00 2.347736e+01 1.575005e+01
      vertex 8.640765e+00 2.296044e+01 1.575005e+01
    endloop
  endfacet
  facet normal 9.848053e-01 -1.736622e-01 6.030193e-17
    outer loop
      vertex 8.722636e+00 2.347736e+01 1.175005e+01
      vertex 8.640765e+00 2.296044e+01 1.575005e+01
      vertex 8.640765e+00 2.296044e+01 1.175005e+01
    endloop
  endfacet
  facet normal 9.702991e-01 -2.419081e-01 5.941368e-17
    outer loop
      vertex 8.640765e+00 2.296044e+01 1.175005e+01
      vertex 8.640765e+00 2.296044e+01 1.575005e+01
      vertex 8.505310e+00 2.245492e+01 1.575005e+01
    endloop
  endfacet
  facet normal 9.612578e-01 -2.756510e-01 5.886006e-17
    outer loop
      vertex 8.640765e+00 2.296044e+01 1.175005e+01
      vertex 8.505310e+00 2.245492e+01 1.575005e+01
      vertex 8.505310e+00 2.245492e+01 1.175005e+01
    endloop
  endfacet
  facet normal 9.396974e-01 -3.420068e-01 5.753987e-17
    outer loop
      vertex 8.505310e+00 2.245492e+01 1.175005e+01
      vertex 8.505310e+00 2.245492e+01 1.575005e+01
      vertex 8.317753e+00 2.196632e+01 1.575005e+01
    endloop
  endfacet
  facet normal 9.271786e-01 -3.746197e-01 5.677331e-17
    outer loop
      vertex 8.505310e+00 2.245492e+01 1.175005e+01
      vertex 8.317753e+00 2.196632e+01 1.575005e+01
      vertex 8.317753e+00 2.196632e+01 1.175005e+01
    endloop
  endfacet
  facet normal 8.988003e-01 -4.383584e-01 5.503564e-17
    outer loop
      vertex 8.317753e+00 2.196632e+01 1.175005e+01
      vertex 8.317753e+00 2.196632e+01 1.575005e+01
      vertex 8.080153e+00 2.150000e+01 1.575005e+01
    endloop
  endfacet
  facet normal 8.829409e-01 -4.694841e-01 5.406454e-17
    outer loop
      vertex 8.317753e+00 2.196632e+01 1.175005e+01
      vertex 8.080153e+00 2.150000e+01 1.575005e+01
      vertex 8.080153e+00 2.150000e+01 1.175005e+01
    endloop
  endfacet
  facet normal 8.480556e-01 -5.299072e-01 5.192843e-17
    outer loop
      vertex 8.080153e+00 2.150000e+01 1.175005e+01
      vertex 8.080153e+00 2.150000e+01 1.575005e+01
      vertex 7.795111e+00 2.106107e+01 1.575005e+01
    endloop
  endfacet
  facet normal 8.290296e-01 -5.592046e-01 5.076342e-17
    outer loop
      vertex 8.080153e+00 2.150000e+01 1.175005e+01
      vertex 7.795111e+00 2.106107e+01 1.575005e+01
      vertex 7.795111e+00 2.106107e+01 1.175005e+01
    endloop
  endfacet
  facet normal 7.880195e-01 -6.156502e-01 4.825228e-17
    outer loop
      vertex 7.795111e+00 2.106107e+01 1.175005e+01
      vertex 7.795111e+00 2.106107e+01 1.575005e+01
      vertex 7.465748e+00 2.065435e+01 1.575005e+01
    endloop
  endfacet
  facet normal 7.660353e-01 -6.427984e-01 4.690613e-17
    outer loop
      vertex 7.795111e+00 2.106107e+01 1.175005e+01
      vertex 7.465748e+00 2.065435e+01 1.575005e+01
      vertex 7.465748e+00 2.065435e+01 1.175005e+01
    endloop
  endfacet
  facet normal 7.193497e-01 -6.946482e-01 4.404747e-17
    outer loop
      vertex 7.465748e+00 2.065435e+01 1.175005e+01
      vertex 7.465748e+00 2.065435e+01 1.575005e+01
      vertex 7.095679e+00 2.028428e+01 1.575005e+01
    endloop
  endfacet
  facet normal 6.946482e-01 -7.193497e-01 4.253494e-17
    outer loop
      vertex 7.465748e+00 2.065435e+01 1.175005e+01
      vertex 7.095679e+00 2.028428e+01 1.575005e+01
      vertex 7.095679e+00 2.028428e+01 1.175005e+01
    endloop
  endfacet
  facet normal 6.427985e-01 -7.660353e-01 3.936006e-17
    outer loop
      vertex 7.095679e+00 2.028428e+01 1.175005e+01
      vertex 7.095679e+00 2.028428e+01 1.575005e+01
      vertex 6.688952e+00 1.995492e+01 1.575005e+01
    endloop
  endfacet
  facet normal 6.156502e-01 -7.880195e-01 3.769770e-17
    outer loop
      vertex 7.095679e+00 2.028428e+01 1.175005e+01
      vertex 6.688952e+00 1.995492e+01 1.575005e+01
      vertex 6.688952e+00 1.995492e+01 1.175005e+01
    endloop
  endfacet
  facet normal 5.592046e-01 -8.290296e-01 3.424141e-17
    outer loop
      vertex 6.688952e+00 1.995492e+01 1.175005e+01
      vertex 6.688952e+00 1.995492e+01 1.575005e+01
      vertex 6.250027e+00 1.966987e+01 1.575005e+01
    endloop
  endfacet
  facet normal 5.299072e-01 -8.480556e-01 3.244746e-17
    outer loop
      vertex 6.688952e+00 1.995492e+01 1.175005e+01
      vertex 6.250027e+00 1.966987e+01 1.575005e+01
      vertex 6.250027e+00 1.966987e+01 1.175005e+01
    endloop
  endfacet
  facet normal 4.694841e-01 -8.829409e-01 2.874761e-17
    outer loop
      vertex 6.250027e+00 1.966987e+01 1.175005e+01
      vertex 6.250027e+00 1.966987e+01 1.575005e+01
      vertex 5.783710e+00 1.943227e+01 1.575005e+01
    endloop
  endfacet
  facet normal 4.383584e-01 -8.988003e-01 2.684171e-17
    outer loop
      vertex 6.250027e+00 1.966987e+01 1.175005e+01
      vertex 5.783710e+00 1.943227e+01 1.575005e+01
      vertex 5.783710e+00 1.943227e+01 1.175005e+01
    endloop
  endfacet
  facet normal 3.746197e-01 -9.271786e-01 2.293884e-17
    outer loop
      vertex 5.783710e+00 1.943227e+01 1.175005e+01
      vertex 5.783710e+00 1.943227e+01 1.575005e+01
      vertex 5.295111e+00 1.924472e+01 1.575005e+01
    endloop
  endfacet
  facet normal 3.420068e-01 -9.396974e-01 2.094188e-17
    outer loop
      vertex 5.783710e+00 1.943227e+01 1.175005e+01
      vertex 5.295111e+00 1.924472e+01 1.575005e+01
      vertex 5.295111e+00 1.924472e+01 1.175005e+01
    endloop
  endfacet
  facet normal 2.756510e-01 -9.612578e-01 1.687875e-17
    outer loop
      vertex 5.295111e+00 1.924472e+01 1.175005e+01
      vertex 5.295111e+00 1.924472e+01 1.575005e+01
      vertex 4.789585e+00 1.910926e+01 1.575005e+01
    endloop
  endfacet
  facet normal 2.419081e-01 -9.702991e-01 1.481260e-17
    outer loop
      vertex 5.295111e+00 1.924472e+01 1.175005e+01
      vertex 4.789585e+00 1.910926e+01 1.575005e+01
      vertex 4.789585e+00 1.910926e+01 1.175005e+01
    endloop
  endfacet
  facet normal 1.736622e-01 -9.848053e-01 1.063374e-17
    outer loop
      vertex 4.789585e+00 1.910926e+01 1.175005e+01
      vertex 4.789585e+00 1.910926e+01 1.575005e+01
      vertex 4.272668e+00 1.902739e+01 1.575005e+01
    endloop
  endfacet
  facet normal 1.391590e-01 -9.902700e-01 8.521033e-18
    outer loop
      vertex 4.789585e+00 1.910926e+01 1.175005e+01
      vertex 4.272668e+00 1.902739e+01 1.575005e+01
      vertex 4.272668e+00 1.902739e+01 1.175005e+01
    endloop
  endfacet
  facet normal 6.977063e-02 -9.975630e-01 4.272219e-18
    outer loop
      vertex 4.272668e+00 1.902739e+01 1.175005e+01
      vertex 4.272668e+00 1.902739e+01 1.575005e+01
      vertex 3.750025e+00 1.900000e+01 1.575005e+01
    endloop
  endfacet
  facet normal 3.488532e-02 -9.993913e-01 2.136110e-18
    outer loop
      vertex 4.272668e+00 1.902739e+01 1.175005e+01
      vertex 3.750025e+00 1.900000e+01 1.575005e+01
      vertex 3.750025e+00 1.900000e+01 1.175005e+01
    endloop
  endfacet
  facet normal 7.709882e-16 -1.000000e+00 4.720941e-32
    outer loop
      vertex -7.499748e-01 1.900000e+01 1.175005e+01
      vertex 3.750025e+00 1.900000e+01 1.175005e+01
      vertex -7.499748e-01 1.900000e+01 1.575005e+01
    endloop
  endfacet
  facet normal 7.709882e-16 -1.000000e+00 4.720941e-32
    outer loop
      vertex -7.499748e-01 1.900000e+01 1.575005e+01
      vertex 3.750025e+00 1.900000e+01 1.175005e+01
      vertex 3.750025e+00 1.900000e+01 1.575005e+01
    endloop
  endfacet
  facet normal -1.000000e+00 0.000000e+00 -6.123234e-17
    outer loop
      vertex -7.499748e-01 2.225000e+01 1.175005e+01
      vertex -7.499748e-01 1.900000e+01 1.175005e+01
      vertex -7.499748e-01 2.225000e+01 1.575005e+01
    endloop
  endfacet
  facet normal -1.000000e+00 0.000000e+00 -6.123234e-17
    outer loop
      vertex -7.499748e-01 2.225000e+01 1.575005e+01
      vertex -7.499748e-01 1.900000e+01 1.175005e+01
      vertex -7.499748e-01 1.900000e+01 1.575005e+01
    endloop
  endfacet
  facet normal 0.000000e+00 1.000000e+00 0.000000e+00
    outer loop
      vertex 7.500271e-01 2.225000e+01 1.175005e+01
      vertex -7.499748e-01 2.225000e+01 1.175005e+01
      vertex 7.500271e-01 2.225000e+01 1.575005e+01
    endloop
  endfacet
  facet normal 0.000000e+00 1.000000e+00 0.000000e+00
    outer loop
      vertex 7.500271e-01 2.225000e+01 1.575005e+01
      vertex -7.499748e-01 2.225000e+01 1.175005e+01
      vertex -7.499748e-01 2.225000e+01 1.575005e+01
    endloop
  endfacet
  facet normal -1.000000e+00 0.000000e+00 -6.123234e-17
    outer loop
      vertex 7.500271e-01 2.575000e+01 1.175005e+01
      vertex 7.500271e-01 2.225000e+01 1.175005e+01
      vertex 7.500271e-01 2.575000e+01 1.575005e+01
    endloop
  endfacet
  facet normal -1.000000e+00 0.000000e+00 -6.123234e-17
    outer loop
      vertex 7.500271e-01 2.575000e+01 1.575005e+01
      vertex 7.500271e-01 2.225000e+01 1.175005e+01
      vertex 7.500271e-01 2.225000e+01 1.575005e+01
    endloop
  endfacet
  facet normal 0.000000e+00 -1.000000e+00 0.000000e+00
    outer loop
      vertex -7.499748e-01 2.575000e+01 1.175005e+01
      vertex 7.500271e-01 2.575000e+01 1.175005e+01
      vertex -7.499748e-01 2.575000e+01 1.575005e+01
    endloop
  endfacet
  facet normal 0.000000e+00 -1.000000e+00 0.000000e+00
    outer loop
      vertex -7.499748e-01 2.575000e+01 1.575005e+01
      vertex 7.500271e-01 2.575000e+01 1.175005e+01
      vertex 7.500271e-01 2.575000e+01 1.575005e+01
    endloop
  endfacet
  facet normal -1.000000e+00 0.000000e+00 -6.123234e-17
    outer loop
      vertex -7.499748e-01 2.900000e+01 1.175005e+01
      vertex -7.499748e-01 2.575000e+01 1.175005e+01
      vertex -7.499748e-01 2.900000e+01 1.575005e+01
    endloop
  endfacet
  facet normal -1.000000e+00 0.000000e+00 -6.123234e-17
    outer loop
      vertex -7.499748e-01 2.900000e+01 1.575005e+01
      vertex -7.499748e-01 2.575000e+01 1.175005e+01
      vertex -7.499748e-01 2.575000e+01 1.575005e+01
    endloop
  endfacet
  facet normal 7.709882e-16 1.000000e+00 4.720941e-32
    outer loop
      vertex 3.750025e+00 2.900000e+01 1.175005e+01
      vertex -7.499748e-01 2.900000e+01 1.175005e+01
      vertex 3.750025e+00 2.900000e+01 1.575005e+01
    endloop
  endfacet
  facet normal 7.709882e-16 1.000000e+00 4.720941e-32
    outer loop
      vertex 3.750025e+00 2.900000e+01 1.575005e+01
      vertex -7.499748e-01 2.900000e+01 1.175005e+01
      vertex -7.499748e-01 2.900000e+01 1.575005e+01
    endloop
  endfacet
  facet normal -9.984846e-01 5.503191e-02 -6.113955e-17
    outer loop
      vertex 5.722749e+00 2.367081e+01 1.175005e+01
      vertex 5.750025e+00 2.400000e+01 1.575005e+01
      vertex 5.750025e+00 2.400000e+01 1.175005e+01
    endloop
  endfacet
  facet normal -9.984846e-01 -5.503191e-02 -6.113955e-17
    outer loop
      vertex 5.750025e+00 2.400000e+01 1.175005e+01
      vertex 5.750025e+00 2.400000e+01 1.575005e+01
      vertex 5.722749e+00 2.432919e+01 1.575005e+01
    endloop
  endfacet
  facet normal -9.939246e-01 -1.100638e-01 -6.086033e-17
    outer loop
      vertex 5.750025e+00 2.400000e+01 1.175005e+01
      vertex 5.722749e+00 2.432919e+01 1.575005e+01
      vertex 5.722749e+00 2.432919e+01 1.175005e+01
    endloop
  endfacet
  facet normal -9.758086e-01 -2.186265e-01 -5.975105e-17
    outer loop
      vertex 5.722749e+00 2.432919e+01 1.175005e+01
      vertex 5.722749e+00 2.432919e+01 1.575005e+01
      vertex 5.641661e+00 2.464940e+01 1.575005e+01
    endloop
  endfacet
  facet normal -9.622528e-01 -2.721573e-01 -5.892099e-17
    outer loop
      vertex 5.722749e+00 2.432919e+01 1.175005e+01
      vertex 5.641661e+00 2.464940e+01 1.575005e+01
      vertex 5.641661e+00 2.464940e+01 1.175005e+01
    endloop
  endfacet
  facet normal -9.265151e-01 -3.762575e-01 -5.673269e-17
    outer loop
      vertex 5.641661e+00 2.464940e+01 1.175005e+01
      vertex 5.641661e+00 2.464940e+01 1.575005e+01
      vertex 5.508973e+00 2.495189e+01 1.575005e+01
    endloop
  endfacet
  facet normal -9.043333e-01 -4.268270e-01 -5.537444e-17
    outer loop
      vertex 5.641661e+00 2.464940e+01 1.175005e+01
      vertex 5.508973e+00 2.495189e+01 1.575005e+01
      vertex 5.508973e+00 2.495189e+01 1.175005e+01
    endloop
  endfacet
  facet normal -8.519487e-01 -5.236253e-01 -5.216681e-17
    outer loop
      vertex 5.508973e+00 2.495189e+01 1.175005e+01
      vertex 5.508973e+00 2.495189e+01 1.575005e+01
      vertex 5.328307e+00 2.522843e+01 1.575005e+01
    endloop
  endfacet
  facet normal -8.217459e-01 -5.698540e-01 -5.031743e-17
    outer loop
      vertex 5.508973e+00 2.495189e+01 1.175005e+01
      vertex 5.328307e+00 2.522843e+01 1.575005e+01
      vertex 5.328307e+00 2.522843e+01 1.175005e+01
    endloop
  endfacet
  facet normal -7.541434e-01 -6.567098e-01 -4.617796e-17
    outer loop
      vertex 5.328307e+00 2.522843e+01 1.175005e+01
      vertex 5.328307e+00 2.522843e+01 1.575005e+01
      vertex 5.104589e+00 2.547145e+01 1.575005e+01
    endloop
  endfacet
  facet normal -7.167435e-01 -6.973369e-01 -4.388788e-17
    outer loop
      vertex 5.328307e+00 2.522843e+01 1.175005e+01
      vertex 5.104589e+00 2.547145e+01 1.575005e+01
      vertex 5.104589e+00 2.547145e+01 1.175005e+01
    endloop
  endfacet
  facet normal -6.357669e-01 -7.718811e-01 -3.892949e-17
    outer loop
      vertex 5.104589e+00 2.547145e+01 1.175005e+01
      vertex 5.104589e+00 2.547145e+01 1.575005e+01
      vertex 4.843922e+00 2.567433e+01 1.575005e+01
    endloop
  endfacet
  facet normal -5.921901e-01 -8.057982e-01 -3.626119e-17
    outer loop
      vertex 5.104589e+00 2.547145e+01 1.175005e+01
      vertex 4.843922e+00 2.567433e+01 1.575005e+01
      vertex 4.843922e+00 2.567433e+01 1.175005e+01
    endloop
  endfacet
  facet normal -5.000484e-01 -8.659974e-01 -3.061913e-17
    outer loop
      vertex 4.843922e+00 2.567433e+01 1.175005e+01
      vertex 4.843922e+00 2.567433e+01 1.575005e+01
      vertex 4.553417e+00 2.583155e+01 1.575005e+01
    endloop
  endfacet
  facet normal -4.514834e-01 -8.922795e-01 -2.764539e-17
    outer loop
      vertex 4.843922e+00 2.567433e+01 1.175005e+01
      vertex 4.553417e+00 2.583155e+01 1.575005e+01
      vertex 4.553417e+00 2.583155e+01 1.175005e+01
    endloop
  endfacet
  facet normal -3.506899e-01 -9.364916e-01 -2.147356e-17
    outer loop
      vertex 4.553417e+00 2.583155e+01 1.175005e+01
      vertex 4.553417e+00 2.583155e+01 1.575005e+01
      vertex 4.240997e+00 2.593880e+01 1.575005e+01
    endloop
  endfacet
  facet normal -2.984614e-01 -9.544217e-01 -1.827549e-17
    outer loop
      vertex 4.553417e+00 2.583155e+01 1.175005e+01
      vertex 4.240997e+00 2.593880e+01 1.575005e+01
      vertex 4.240997e+00 2.593880e+01 1.175005e+01
    endloop
  endfacet
  facet normal -1.917655e-01 -9.814408e-01 -1.174225e-17
    outer loop
      vertex 4.240997e+00 2.593880e+01 1.175005e+01
      vertex 4.240997e+00 2.593880e+01 1.575005e+01
      vertex 3.915184e+00 2.599317e+01 1.575005e+01
    endloop
  endfacet
  facet normal -1.372982e-01 -9.905298e-01 -8.407087e-18
    outer loop
      vertex 4.240997e+00 2.593880e+01 1.175005e+01
      vertex 3.915184e+00 2.599317e+01 1.575005e+01
      vertex 3.915184e+00 2.599317e+01 1.175005e+01
    endloop
  endfacet
  facet normal -2.761026e-02 -9.996188e-01 -1.690641e-18
    outer loop
      vertex 3.915184e+00 2.599317e+01 1.175005e+01
      vertex 3.915184e+00 2.599317e+01 1.575005e+01
      vertex 3.584868e+00 2.599317e+01 1.575005e+01
    endloop
  endfacet
  facet normal 2.761026e-02 -9.996188e-01 1.690641e-18
    outer loop
      vertex 3.915184e+00 2.599317e+01 1.175005e+01
      vertex 3.584868e+00 2.599317e+01 1.575005e+01
      vertex 3.584868e+00 2.599317e+01 1.175005e+01
    endloop
  endfacet
  facet normal 1.372982e-01 -9.905298e-01 8.407087e-18
    outer loop
      vertex 3.584868e+00 2.599317e+01 1.175005e+01
      vertex 3.584868e+00 2.599317e+01 1.575005e+01
      vertex 3.259055e+00 2.593880e+01 1.575005e+01
    endloop
  endfacet
  facet normal 1.917655e-01 -9.814408e-01 1.174225e-17
    outer loop
      vertex 3.584868e+00 2.599317e+01 1.175005e+01
      vertex 3.259055e+00 2.593880e+01 1.575005e+01
      vertex 3.259055e+00 2.593880e+01 1.175005e+01
    endloop
  endfacet
  facet normal 2.984614e-01 -9.544217e-01 1.827549e-17
    outer loop
      vertex 3.259055e+00 2.593880e+01 1.175005e+01
      vertex 3.259055e+00 2.593880e+01 1.575005e+01
      vertex 2.946635e+00 2.583155e+01 1.575005e+01
    endloop
  endfacet
  facet normal 3.506899e-01 -9.364916e-01 2.147356e-17
    outer loop
      vertex 3.259055e+00 2.593880e+01 1.175005e+01
      vertex 2.946635e+00 2.583155e+01 1.575005e+01
      vertex 2.946635e+00 2.583155e+01 1.175005e+01
    endloop
  endfacet
  facet normal 4.514834e-01 -8.922795e-01 2.764539e-17
    outer loop
      vertex 2.946635e+00 2.583155e+01 1.175005e+01
      vertex 2.946635e+00 2.583155e+01 1.575005e+01
      vertex 2.656129e+00 2.567433e+01 1.575005e+01
    endloop
  endfacet
  facet normal 5.000484e-01 -8.659974e-01 3.061913e-17
    outer loop
      vertex 2.946635e+00 2.583155e+01 1.175005e+01
      vertex 2.656129e+00 2.567433e+01 1.575005e+01
      vertex 2.656129e+00 2.567433e+01 1.175005e+01
    endloop
  endfacet
  facet normal 5.921901e-01 -8.057982e-01 3.626119e-17
    outer loop
      vertex 2.656129e+00 2.567433e+01 1.175005e+01
      vertex 2.656129e+00 2.567433e+01 1.575005e+01
      vertex 2.395463e+00 2.547145e+01 1.575005e+01
    endloop
  endfacet
  facet normal 6.357669e-01 -7.718811e-01 3.892949e-17
    outer loop
      vertex 2.656129e+00 2.567433e+01 1.175005e+01
      vertex 2.395463e+00 2.547145e+01 1.575005e+01
      vertex 2.395463e+00 2.547145e+01 1.175005e+01
    endloop
  endfacet
  facet normal 7.167435e-01 -6.973369e-01 4.388788e-17
    outer loop
      vertex 2.395463e+00 2.547145e+01 1.175005e+01
      vertex 2.395463e+00 2.547145e+01 1.575005e+01
      vertex 2.171745e+00 2.522843e+01 1.575005e+01
    endloop
  endfacet
  facet normal 7.541434e-01 -6.567098e-01 4.617796e-17
    outer loop
      vertex 2.395463e+00 2.547145e+01 1.175005e+01
      vertex 2.171745e+00 2.522843e+01 1.575005e+01
      vertex 2.171745e+00 2.522843e+01 1.175005e+01
    endloop
  endfacet
  facet normal 8.217461e-01 -5.698540e-01 5.031743e-17
    outer loop
      vertex 2.171745e+00 2.522843e+01 1.175005e+01
      vertex 2.171745e+00 2.522843e+01 1.575005e+01
      vertex 1.991079e+00 2.495189e+01 1.575005e+01
    endloop
  endfacet
  facet normal 8.519487e-01 -5.236253e-01 5.216681e-17
    outer loop
      vertex 2.171745e+00 2.522843e+01 1.175005e+01
      vertex 1.991079e+00 2.495189e+01 1.575005e+01
      vertex 1.991079e+00 2.495189e+01 1.175005e+01
    endloop
  endfacet
  facet normal 9.043333e-01 -4.268270e-01 5.537444e-17
    outer loop
      vertex 1.991079e+00 2.495189e+01 1.175005e+01
      vertex 1.991079e+00 2.495189e+01 1.575005e+01
      vertex 1.858392e+00 2.464940e+01 1.575005e+01
    endloop
  endfacet
  facet normal 9.265151e-01 -3.762575e-01 5.673269e-17
    outer loop
      vertex 1.991079e+00 2.495189e+01 1.175005e+01
      vertex 1.858392e+00 2.464940e+01 1.575005e+01
      vertex 1.858392e+00 2.464940e+01 1.175005e+01
    endloop
  endfacet
  facet normal 9.622528e-01 -2.721573e-01 5.892099e-17
    outer loop
      vertex 1.858392e+00 2.464940e+01 1.175005e+01
      vertex 1.858392e+00 2.464940e+01 1.575005e+01
      vertex 1.777303e+00 2.432919e+01 1.575005e+01
    endloop
  endfacet
  facet normal 9.758086e-01 -2.186265e-01 5.975105e-17
    outer loop
      vertex 1.858392e+00 2.464940e+01 1.175005e+01
      vertex 1.777303e+00 2.432919e+01 1.575005e+01
      vertex 1.777303e+00 2.432919e+01 1.175005e+01
    endloop
  endfacet
  facet normal 9.939246e-01 -1.100638e-01 6.086033e-17
    outer loop
      vertex 1.777303e+00 2.432919e+01 1.175005e+01
      vertex 1.777303e+00 2.432919e+01 1.575005e+01
      vertex 1.750027e+00 2.400000e+01 1.575005e+01
    endloop
  endfacet
  facet normal 9.984846e-01 -5.503191e-02 6.113955e-17
    outer loop
      vertex 1.777303e+00 2.432919e+01 1.175005e+01
      vertex 1.750027e+00 2.400000e+01 1.575005e+01
      vertex 1.750027e+00 2.400000e+01 1.175005e+01
    endloop
  endfacet
  facet normal 9.984846e-01 5.503191e-02 6.113955e-17
    outer loop
      vertex 1.750027e+00 2.400000e+01 1.175005e+01
      vertex 1.750027e+00 2.400000e+01 1.575005e+01
      vertex 1.777303e+00 2.367081e+01 1.575005e+01
    endloop
  endfacet
  facet normal 9.939246e-01 1.100638e-01 6.086033e-17
    outer loop
      vertex 1.750027e+00 2.400000e+01 1.175005e+01
      vertex 1.777303e+00 2.367081e+01 1.575005e+01
      vertex 1.777303e+00 2.367081e+01 1.175005e+01
    endloop
  endfacet
  facet normal 9.758086e-01 2.186265e-01 5.975105e-17
    outer loop
      vertex 1.777303e+00 2.367081e+01 1.175005e+01
      vertex 1.777303e+00 2.367081e+01 1.575005e+01
      vertex 1.858392e+00 2.335060e+01 1.575005e+01
    endloop
  endfacet
  facet normal 9.622528e-01 2.721573e-01 5.892099e-17
    outer loop
      vertex 1.777303e+00 2.367081e+01 1.175005e+01
      vertex 1.858392e+00 2.335060e+01 1.575005e+01
      vertex 1.858392e+00 2.335060e+01 1.175005e+01
    endloop
  endfacet
  facet normal 9.265151e-01 3.762575e-01 5.673269e-17
    outer loop
      vertex 1.858392e+00 2.335060e+01 1.175005e+01
      vertex 1.858392e+00 2.335060e+01 1.575005e+01
      vertex 1.991079e+00 2.304811e+01 1.575005e+01
    endloop
  endfacet
  facet normal 9.043333e-01 4.268270e-01 5.537444e-17
    outer loop
      vertex 1.858392e+00 2.335060e+01 1.175005e+01
      vertex 1.991079e+00 2.304811e+01 1.575005e+01
      vertex 1.991079e+00 2.304811e+01 1.175005e+01
    endloop
  endfacet
  facet normal 8.519487e-01 5.236253e-01 5.216681e-17
    outer loop
      vertex 1.991079e+00 2.304811e+01 1.175005e+01
      vertex 1.991079e+00 2.304811e+01 1.575005e+01
      vertex 2.171745e+00 2.277157e+01 1.575005e+01
    endloop
  endfacet
  facet normal 8.217459e-01 5.698540e-01 5.031743e-17
    outer loop
      vertex 1.991079e+00 2.304811e+01 1.175005e+01
      vertex 2.171745e+00 2.277157e+01 1.575005e+01
      vertex 2.171745e+00 2.277157e+01 1.175005e+01
    endloop
  endfacet
  facet normal 7.541434e-01 6.567098e-01 4.617796e-17
    outer loop
      vertex 2.171745e+00 2.277157e+01 1.175005e+01
      vertex 2.171745e+00 2.277157e+01 1.575005e+01
      vertex 2.395463e+00 2.252855e+01 1.575005e+01
    endloop
  endfacet
  facet normal 7.167435e-01 6.973369e-01 4.388788e-17
    outer loop
      vertex 2.171745e+00 2.277157e+01 1.175005e+01
      vertex 2.395463e+00 2.252855e+01 1.575005e+01
      vertex 2.395463e+00 2.252855e+01 1.175005e+01
    endloop
  endfacet
  facet normal 6.357669e-01 7.718811e-01 3.892949e-17
    outer loop
      vertex 2.395463e+00 2.252855e+01 1.175005e+01
      vertex 2.395463e+00 2.252855e+01 1.575005e+01
      vertex 2.656129e+00 2.232567e+01 1.575005e+01
    endloop
  endfacet
  facet normal 5.921901e-01 8.057982e-01 3.626119e-17
    outer loop
      vertex 2.395463e+00 2.252855e+01 1.175005e+01
      vertex 2.656129e+00 2.232567e+01 1.575005e+01
      vertex 2.656129e+00 2.232567e+01 1.175005e+01
    endloop
  endfacet
  facet normal 5.000484e-01 8.659974e-01 3.061913e-17
    outer loop
      vertex 2.656129e+00 2.232567e+01 1.175005e+01
      vertex 2.656129e+00 2.232567e+01 1.575005e+01
      vertex 2.946635e+00 2.216845e+01 1.575005e+01
    endloop
  endfacet
  facet normal 4.514834e-01 8.922795e-01 2.764539e-17
    outer loop
      vertex 2.656129e+00 2.232567e+01 1.175005e+01
      vertex 2.946635e+00 2.216845e+01 1.575005e+01
      vertex 2.946635e+00 2.216845e+01 1.175005e+01
    endloop
  endfacet
  facet normal 3.506899e-01 9.364916e-01 2.147356e-17
    outer loop
      vertex 2.946635e+00 2.216845e+01 1.175005e+01
      vertex 2.946635e+00 2.216845e+01 1.575005e+01
      vertex 3.259055e+00 2.206120e+01 1.575005e+01
    endloop
  endfacet
  facet normal 2.984614e-01 9.544217e-01 1.827549e-17
    outer loop
      vertex 2.946635e+00 2.216845e+01 1.175005e+01
      vertex 3.259055e+00 2.206120e+01 1.575005e+01
      vertex 3.259055e+00 2.206120e+01 1.175005e+01
    endloop
  endfacet
  facet normal 1.917655e-01 9.814408e-01 1.174225e-17
    outer loop
      vertex 3.259055e+00 2.206120e+01 1.175005e+01
      vertex 3.259055e+00 2.206120e+01 1.575005e+01
      vertex 3.584868e+00 2.200683e+01 1.575005e+01
    endloop
  endfacet
  facet normal 1.372982e-01 9.905298e-01 8.407087e-18
    outer loop
      vertex 3.259055e+00 2.206120e+01 1.175005e+01
      vertex 3.584868e+00 2.200683e+01 1.575005e+01
      vertex 3.584868e+00 2.200683e+01 1.175005e+01
    endloop
  endfacet
  facet normal 2.761026e-02 9.996188e-01 1.690641e-18
    outer loop
      vertex 3.584868e+00 2.200683e+01 1.175005e+01
      vertex 3.584868e+00 2.200683e+01 1.575005e+01
      vertex 3.915184e+00 2.200683e+01 1.575005e+01
    endloop
  endfacet
  facet normal -2.761026e-02 9.996188e-01 -1.690641e-18
    outer loop
      vertex 3.584868e+00 2.200683e+01 1.175005e+01
      vertex 3.915184e+00 2.200683e+01 1.575005e+01
      vertex 3.915184e+00 2.200683e+01 1.175005e+01
    endloop
  endfacet
  facet normal -1.372982e-01 9.905298e-01 -8.407087e-18
    outer loop
      vertex 3.915184e+00 2.200683e+01 1.175005e+01
      vertex 3.915184e+00 2.200683e+01 1.575005e+01
      vertex 4.240997e+00 2.206120e+01 1.575005e+01
    endloop
  endfacet
  facet normal -1.917655e-01 9.814408e-01 -1.174225e-17
    outer loop
      vertex 3.915184e+00 2.200683e+01 1.175005e+01
      vertex 4.240997e+00 2.206120e+01 1.575005e+01
      vertex 4.240997e+00 2.206120e+01 1.175005e+01
    endloop
  endfacet
  facet normal -2.984614e-01 9.544217e-01 -1.827549e-17
    outer loop
      vertex 4.240997e+00 2.206120e+01 1.175005e+01
      vertex 4.240997e+00 2.206120e+01 1.575005e+01
      vertex 4.553417e+00 2.216845e+01 1.575005e+01
    endloop
  endfacet
  facet normal -3.506899e-01 9.364916e-01 -2.147356e-17
    outer loop
      vertex 4.240997e+00 2.206120e+01 1.175005e+01
      vertex 4.553417e+00 2.216845e+01 1.575005e+01
      vertex 4.553417e+00 2.216845e+01 1.175005e+01
    endloop
  endfacet
  facet normal -4.514834e-01 8.922795e-01 -2.764539e-17
    outer loop
      vertex 4.553417e+00 2.216845e+01 1.175005e+01
      vertex 4.553417e+00 2.216845e+01 1.575005e+01
      vertex 4.843922e+00 2.232567e+01 1.575005e+01
    endloop
  endfacet
  facet normal -5.000484e-01 8.659974e-01 -3.061913e-17
    outer loop
      vertex 4.553417e+00 2.216845e+01 1.175005e+01
      vertex 4.843922e+00 2.232567e+01 1.575005e+01
      vertex 4.843922e+00 2.232567e+01 1.175005e+01
    endloop
  endfacet
  facet normal -5.921901e-01 8.057982e-01 -3.626119e-17
    outer loop
      vertex 4.843922e+00 2.232567e+01 1.175005e+01
      vertex 4.843922e+00 2.232567e+01 1.575005e+01
      vertex 5.104589e+00 2.252855e+01 1.575005e+01
    endloop
  endfacet
  facet normal -6.357669e-01 7.718811e-01 -3.892949e-17
    outer loop
      vertex 4.843922e+00 2.232567e+01 1.175005e+01
      vertex 5.104589e+00 2.252855e+01 1.575005e+01
      vertex 5.104589e+00 2.252855e+01 1.175005e+01
    endloop
  endfacet
  facet normal -7.167435e-01 6.973369e-01 -4.388788e-17
    outer loop
      vertex 5.104589e+00 2.252855e+01 1.175005e+01
      vertex 5.104589e+00 2.252855e+01 1.575005e+01
      vertex 5.328307e+00 2.277157e+01 1.575005e+01
    endloop
  endfacet
  facet normal -7.541434e-01 6.567098e-01 -4.617796e-17
    outer loop
      vertex 5.104589e+00 2.252855e+01 1.175005e+01
      vertex 5.328307e+00 2.277157e+01 1.575005e+01
      vertex 5.328307e+00 2.277157e+01 1.175005e+01
    endloop
  endfacet
  facet normal -8.217461e-01 5.698540e-01 -5.031743e-17
    outer loop
      vertex 5.328307e+00 2.277157e+01 1.175005e+01
      vertex 5.328307e+00 2.277157e+01 1.575005e+01
      vertex 5.508973e+00 2.304811e+01 1.575005e+01
    endloop
  endfacet
  facet normal -8.519487e-01 5.236253e-01 -5.216681e-17
    outer loop
      vertex 5.328307e+00 2.277157e+01 1.175005e+01
      vertex 5.508973e+00 2.304811e+01 1.575005e+01
      vertex 5.508973e+00 2.304811e+01 1.175005e+01
    endloop
  endfacet
  facet normal -9.043333e-01 4.268270e-01 -5.537444e-17
    outer loop
      vertex 5.508973e+00 2.304811e+01 1.175005e+01
      vertex 5.508973e+00 2.304811e+01 1.575005e+01
      vertex 5.641661e+00 2.335060e+01 1.575005e+01
    endloop
  endfacet
  facet normal -9.265151e-01 3.762575e-01 -5.673269e-17
    outer loop
      vertex 5.508973e+00 2.304811e+01 1.175005e+01
      vertex 5.641661e+00 2.335060e+01 1.575005e+01
      vertex 5.641661e+00 2.335060e+01 1.175005e+01
    endloop
  endfacet
  facet normal -9.622528e-01 2.721573e-01 -5.892099e-17
    outer loop
      vertex 5.641661e+00 2.335060e+01 1.175005e+01
      vertex 5.641661e+00 2.335060e+01 1.575005e+01
      vertex 5.722749e+00 2.367081e+01 1.575005e+01
    endloop
  endfacet
  facet normal -9.758086e-01 2.186265e-01 -5.975105e-17
    outer loop
      vertex 5.641661e+00 2.335060e+01 1.175005e+01
      vertex 5.722749e+00 2.367081e+01 1.575005e+01
      vertex 5.722749e+00 2.367081e+01 1.175005e+01
    endloop
  endfacet
  facet normal -9.939246e-01 1.100638e-01 -6.086033e-17
    outer loop
      vertex 5.722749e+00 2.367081e+01 1.175005e+01
      vertex 5.722749e+00 2.367081e+01 1.575005e+01
      vertex 5.750025e+00 2.400000e+01 1.575005e+01
    endloop
  endfacet
endsolid Default
